<svg fill="#ffffff" height="200px" width="200px" version="1.1" id="Layer_1" xmlns="http://www.w3.org/2000/svg" xmlns:xlink="http://www.w3.org/1999/xlink" viewBox="0 0 512 512" xml:space="preserve" transform="rotate(270)" stroke="#ffffff" stroke-width="40.448"><g id="SVGRepo_bgCarrier" stroke-width="0"></g><g id="SVGRepo_tracerCarrier" stroke-linecap="round" stroke-linejoin="round"></g><g id="SVGRepo_iconCarrier"> <g> <g> <path d="M509.409,2.589c-1.8-1.8-4.278-2.741-6.838-2.568L315.023,12.526c-2.137,0.143-4.148,1.053-5.664,2.568L2.592,321.862 c-3.454,3.453-3.454,9.048,0,12.502L177.634,509.41c1.658,1.658,3.907,2.59,6.251,2.59c2.344,0,4.593-0.932,6.251-2.59 l306.772-306.772c1.515-1.515,2.426-3.527,2.569-5.664L511.978,9.427C512.15,6.884,511.214,4.389,509.409,2.589z M183.885,490.657 L21.345,328.113l93.131-93.131l11.027,143.379c0.337,4.347,3.79,7.801,8.138,8.137l143.375,11.028L183.885,490.657z M293.483,381.059L142.55,369.452l-11.607-150.936l27.292-27.294l11.028,143.379c0.337,4.347,3.79,7.801,8.137,8.137 l143.375,11.028L293.483,381.059z M337.244,337.298l-150.933-11.607l-11.607-150.936l21.042-21.043l11.028,143.38 c0.337,4.347,3.79,7.801,8.137,8.137l143.375,11.028L337.244,337.298z M374.753,299.789L223.82,288.182l-11.607-150.936 l21.042-21.043l11.028,143.379c0.337,4.347,3.79,7.801,8.137,8.137l143.375,11.028L374.753,299.789z M412.263,262.279 L261.33,250.672L249.723,99.736l27.293-27.294l11.027,143.379c0.337,4.347,3.79,7.801,8.138,8.137l143.375,11.027L412.263,262.279 z M482.057,192.485l-26.034,26.034L305.09,206.912L293.483,55.976l26.03-26.031l174.152-11.612L482.057,192.485z"></path> </g> </g> <g> <g> <path d="M459.398,52.604c-13.357-13.365-36.655-13.365-50.011,0c-13.788,13.784-13.788,36.219,0,50.011 c6.894,6.894,15.946,10.339,25.003,10.339c9.057,0,18.114-3.445,25.008-10.339C473.186,88.823,473.186,66.388,459.398,52.604z M446.896,90.114c-6.898,6.89-18.109,6.89-25.008,0c-6.89-6.894-6.894-18.114,0-25.008c6.682-6.683,18.325-6.683,25.008,0 C453.79,72,453.786,83.22,446.896,90.114z"></path> </g> </g> </g></svg>
