<svg height="200px" width="200px" version="1.1" id="Layer_1" xmlns="http://www.w3.org/2000/svg" xmlns:xlink="http://www.w3.org/1999/xlink" viewBox="-184.32 -184.32 880.64 880.64" xml:space="preserve" fill="#000000"><g id="SVGRepo_bgCarrier" stroke-width="0"><rect x="-184.32" y="-184.32" width="880.64" height="880.64" rx="440.32" fill="#F8F6FE" strokewidth="0"></rect></g><g id="SVGRepo_tracerCarrier" stroke-linecap="round" stroke-linejoin="round"></g><g id="SVGRepo_iconCarrier"> <path style="fill:#764AF1;" d="M393.347,242.966c6.48,6.48,6.48,16.992,0,23.472c-6.492,6.492-17.004,6.492-23.484,0 c-6.48-6.48-6.48-16.992,0-23.472C376.343,236.475,386.855,236.475,393.347,242.966z"></path> <polygon style="fill:#764AF1;" points="502.919,288.566 415.462,376.01 391.579,352.126 404.865,338.84 465.737,277.956 479.023,264.67 "></polygon> <path style="fill:#764AF1;" d="M303.032,176.136l103.25,30.339c7.182,2.107,13.964,6.625,19.269,12.39 c5.305,5.753,9.132,12.753,10.416,19.838c1.344,7.412,5.571,15.067,11.772,21.256l17.998,17.998l-60.872,60.884l-18.01-18.01 c-3.1-3.101-6.552-5.704-10.161-7.703c-3.621-1.998-7.376-3.391-11.094-4.057c-14.158-2.568-28.002-15.321-32.228-29.697 L303.032,176.136z M369.863,242.966c-6.48,6.48-6.48,16.992,0,23.472c6.48,6.492,16.992,6.492,23.484,0 c6.48-6.48,6.48-16.992,0-23.472C386.855,236.475,376.343,236.475,369.863,242.966z"></path> <g> <path style="fill:#764AF1;" d="M509.34,282.144l-23.892-23.892c-1.704-1.704-4.014-2.661-6.424-2.661s-4.719,0.957-6.424,2.661 l-6.861,6.862l-11.58-11.58c-4.87-4.87-8.245-10.866-9.257-16.451c-3.187-17.583-18.354-34.123-36.064-39.327l-96.719-28.419V94.93 c0-5.017-4.066-9.084-9.084-9.084h-63.758c-5.018,0-9.084,4.067-9.084,9.084v322.139c0,5.017,4.066,9.084,9.084,9.084h66.753 v55.657H161.825c-5.018,0-9.084,4.067-9.084,9.084c0,5.017,4.066,9.084,9.084,9.084h153.289c5.018,0,9.084-4.067,9.084-9.084 v-73.824c0-5.017-4.066-9.084-9.084-9.084h-66.753V104.013h45.591v72.122c0,0.027,0.004,0.053,0.004,0.081 c0,0.084,0.01,0.167,0.012,0.252c0.011,0.297,0.034,0.589,0.073,0.877c0.013,0.098,0.028,0.195,0.045,0.293 c0.055,0.328,0.125,0.652,0.214,0.968c0.008,0.03,0.011,0.061,0.021,0.091l0.025,0.087c0.008,0.027,0.015,0.053,0.023,0.08 l30.287,103.075c5.204,17.712,21.744,32.878,39.327,36.063c5.583,1.011,11.581,4.386,16.451,9.257l11.58,11.581l-6.862,6.862 c-3.547,3.547-3.547,9.298,0,12.845l23.891,23.892c1.704,1.704,4.014,2.661,6.424,2.661s4.719-0.957,6.424-2.661l87.449-87.449 c1.703-1.703,2.66-4.014,2.66-6.423S511.043,283.847,509.34,282.144z M393.282,314.413c-7.533-7.532-16.788-12.607-26.059-14.285 c-10.83-1.962-21.871-12.201-25.136-23.31l-20.299-69.085l36.414,36.414c-1.48,3.279-2.284,6.851-2.284,10.556 c0,6.861,2.673,13.312,7.524,18.163c4.852,4.852,11.302,7.524,18.164,7.524c6.861,0,13.312-2.672,18.163-7.524 c4.851-4.852,7.524-11.302,7.524-18.163c0-6.861-2.673-13.312-7.524-18.163c-4.852-4.852-11.302-7.524-18.163-7.524 c-3.705,0-7.279,0.803-10.556,2.283l-36.413-36.413l69.082,20.299c11.109,3.264,21.348,14.306,23.31,25.136 c1.68,9.271,6.753,18.526,14.287,26.059l11.58,11.58l-48.033,48.033L393.282,314.413z M381.605,247.185 c2.008,0,3.897,0.782,5.317,2.202c1.421,1.421,2.203,3.309,2.203,5.317c0,2.008-0.782,3.896-2.203,5.317 c-1.419,1.419-3.308,2.202-5.317,2.202c-2.009,0-3.897-0.782-5.317-2.202c-1.421-1.421-2.203-3.309-2.203-5.317 c0-2.008,0.782-3.896,2.203-5.317C377.708,247.967,379.597,247.185,381.605,247.185z M415.467,363.17l-11.044-11.046l74.603-74.603 l11.046,11.046L415.467,363.17z"></path> <path style="fill:#764AF1;" d="M147.335,426.153c5.018,0,9.084-4.067,9.084-9.084V94.93c0-5.017-4.066-9.084-9.084-9.084H82.907 c-5.018,0-9.084,4.067-9.084,9.084v72.122H18.167V30.189h349.609V57.59c0,5.017,4.066,9.084,9.084,9.084s9.084-4.067,9.084-9.084 V21.106c0-5.017-4.066-9.084-9.084-9.084H9.084C4.066,12.022,0,16.089,0,21.106v155.03c0,5.017,4.066,9.084,9.084,9.084h73.824 c5.018,0,9.084-4.067,9.084-9.084v-72.122h46.261v303.972H70.828c-5.018,0-9.084,4.067-9.084,9.084v73.824 c0,5.017,4.066,9.084,9.084,9.084h44.974c5.018,0,9.084-4.067,9.084-9.084s-4.066-9.084-9.084-9.084H79.911v-55.657H147.335z"></path> </g> </g></svg>