<svg fill="#764AF1" height="200px" width="200px" version="1.1" id="Layer_1" xmlns="http://www.w3.org/2000/svg" xmlns:xlink="http://www.w3.org/1999/xlink" viewBox="-280.44 -280.44 1070.77 1070.77" xml:space="preserve" stroke="#764AF1" stroke-width="11.727401"><g id="SVGRepo_bgCarrier" stroke-width="0"><rect x="-280.44" y="-280.44" width="1070.77" height="1070.77" rx="535.385" fill="#F8F6FE" strokewidth="0"></rect></g><g id="SVGRepo_tracerCarrier" stroke-linecap="round" stroke-linejoin="round"></g><g id="SVGRepo_iconCarrier"> <g> <g> <path d="M496.698,437.055L389.302,328.268l-6.034-6.112l-12.107,12.107l-62.382-62.382c20.892-28.318,33.247-63.32,33.247-101.214 C342.026,76.405,265.621,0,171.36,0S0.693,76.405,0.693,170.667S77.098,341.333,171.36,341.333 c37.892,0,72.893-12.354,101.211-33.245l62.387,62.379l-12.03,12.03l113.391,114.859c16.7,16.7,43.718,16.7,60.38,0.039 C513.36,480.735,513.36,453.717,496.698,437.055z M290.757,267.197c-6.786,8.392-14.448,16.051-22.875,22.874l-3.279,2.654 c-13.025,9.965-27.688,17.896-43.521,23.31c25.594-28.745,42.503-79.211,44.029-136.836h59.608 c-1.738,31.732-13.107,60.893-31.232,84.621L290.757,267.197z M179.893,179.2h68.144c-2.124,75.501-32.229,135.715-68.144,144.065 V179.2z M179.893,162.133V18.068c35.915,8.35,66.019,68.564,68.144,144.065H179.893z M162.826,18.068v144.065H94.683 C96.807,86.632,126.912,26.418,162.826,18.068z M162.826,179.2v144.065c-35.915-8.35-66.019-68.564-68.144-144.065H162.826z M324.72,162.133h-59.608c-1.526-57.625-18.435-108.091-44.029-136.836C278.945,45.082,321.232,98.436,324.72,162.133z M121.636,25.298c-25.594,28.745-42.504,79.211-44.029,136.836H17.999C21.487,98.436,63.774,45.082,121.636,25.298z M17.999,179.2 h59.608c1.526,57.625,18.435,108.091,44.029,136.836C63.774,296.251,21.487,242.897,17.999,179.2z M347.023,358.399 l-61.173-61.166c4.222-3.821,8.251-7.851,12.073-12.072l61.171,61.171l-3.527,3.527L347.023,358.399z M484.63,485.328 c-9.997,9.997-26.208,9.997-36.205,0L346.986,382.575l20.555-20.555l15.652-15.647l101.398,102.711 C494.627,459.12,494.627,475.332,484.63,485.328z"></path> </g> </g> </g></svg>