<svg viewBox="-4.16 -4.16 40.32 40.32" id="Lager_30" data-name="Lager 30" xmlns="http://www.w3.org/2000/svg" fill="#000000" stroke="#000000" stroke-width="0.00032"><g id="SVGRepo_bgCarrier" stroke-width="0"></g><g id="SVGRepo_tracerCarrier" stroke-linecap="round" stroke-linejoin="round"></g><g id="SVGRepo_iconCarrier"> <g id="Group_9" data-name="Group 9"> <path id="Path_35" data-name="Path 35" d="M14.613,11.413,17.246,14H9.98A1.979,1.979,0,0,0,8,15.98v.04A1.979,1.979,0,0,0,9.98,18h6.963l-.042.26-2.227,2.248a2.091,2.091,0,0,0-.293,2.657,1.973,1.973,0,0,0,3.022.255l6.016-6.074a2.017,2.017,0,0,0,0-2.833l-6-5.934a1.97,1.97,0,0,0-2.806,0A2.016,2.016,0,0,0,14.613,11.413Z" fill="#764AF1"></path> <path id="Path_36" data-name="Path 36" d="M0,16A16,16,0,1,0,16,0,16,16,0,0,0,0,16Zm28,0A12,12,0,1,1,16,4,12.013,12.013,0,0,1,28,16Z" fill="#764AF1"></path> </g> </g></svg>